<svg id="Layer_1" data-name="Layer 1" xmlns="http://www.w3.org/2000/svg" viewBox="0 0 3000 3000"><defs><style>.cls-1{fill:#fff;}.cls-2,.cls-3{fill:none;stroke:#fff;}.cls-2{stroke-miterlimit:10;stroke-width:125.92px;}.cls-3{stroke-linecap:round;stroke-linejoin:round;stroke-width:84px;}</style></defs><path class="cls-1" d="M2161.24,1470.56v.36a57.38,57.38,0,0,1-57.38,57.38H1880.43c-31.54,0-57.83,25.1-58.23,56.64a57.39,57.39,0,0,0,57.38,58.13h89.94a57.38,57.38,0,0,1,57.38,57.38v.36a57.38,57.38,0,0,1-57.38,57.39h-320v-345h454.37A57.38,57.38,0,0,1,2161.24,1470.56Z"/><path class="cls-2" d="M684.67,1133.39C827.53,789.33,1179.34,547.92,1569,547.92c196.7,0,385.19,47.71,539,146.21,77.53,49.64,90.93,157.46,27.57,224.25l-2,2.11c-48.11,50.72-125.49,60.53-184.46,23-80.1-51-206.91-109.14-362.64-102.82-272.53,11.07-580.87,135-667.32,598.93h0a40.3,40.3,0,0,1-40.45,37.21l-219-1.46a31.35,31.35,0,0,0-31.56,31.36h0c0,529.51,421.24,958.76,940.86,958.76,208.4,0,401-69,556.9-185.91,84.17-63.08,85.54-188.91,3.12-254.27h0a160.69,160.69,0,0,0-183.67-11.18c-24.53,15-52.62,31.11-82.54,46.3-126.51,64.26-276.3-27.81-276.3-169.71l1.64-544"/><path class="cls-3" d="M1020.62,1714.12s52.74,302.11,348.94,339.49"/><circle class="cls-1" cx="649.23" cy="1192.39" r="104.74"/><circle class="cls-1" cx="1002.41" cy="1666.74" r="81.05"/><circle class="cls-1" cx="1390.85" cy="2057.42" r="78.14"/><circle class="cls-1" cx="1588.12" cy="1325.05" r="88.12"/></svg>